<svg width="168" height="113" viewBox="0 0 168 113" fill="none" xmlns="http://www.w3.org/2000/svg">
<path d="M100.854 87.7422L93.6228 76.3554C93.6228 76.3554 113.654 53.0115 115.658 51.6321C115.658 51.6321 105.555 68.72 100.854 87.7422Z" fill="url(#paint0_linear_7001_2)"/>
<path d="M93.6229 76.3553L79.9895 88.5719L54.9092 76.3553L35.7216 77.4141C35.7216 77.4141 47.6735 81.4863 51.0363 81.3183L54.4043 81.1503C54.4043 81.1503 75.0007 101.17 79.7371 102.697C84.4734 104.224 100.031 92.2522 100.031 92.2522L100.934 87.7778L93.6229 76.3553Z" fill="url(#paint1_linear_7001_2)"/>
<path d="M131.241 48.8681C129.346 49.7928 127.309 50.385 125.217 50.6191C122.798 50.9856 119.122 49.6316 119.122 49.6316C121.899 47.4276 121.253 42.2304 121.253 42.2304L121.314 42.1999C124.278 41.9708 126.757 40.2758 128.489 38.6367C127.863 43.0856 131.241 48.8681 131.241 48.8681Z" fill="url(#paint2_linear_7001_2)"/>
<path d="M131.241 32.3146V35.3688C130.451 36.5553 129.53 37.6466 128.494 38.6214C126.762 40.2656 124.283 41.9606 121.319 42.1846C119.972 42.2883 118.62 42.0884 117.36 41.5992C109.281 38.5451 114.962 22.3836 114.962 22.3836C117.527 15.807 129.14 18.9884 129.14 18.9884C130.695 20.8565 130.993 26.074 130.933 26.583C130.674 27.2982 130.335 27.9813 129.923 28.6191C129.923 28.6191 132.129 26.5219 132.887 27.9167C133.644 29.3114 131.241 32.3146 131.241 32.3146Z" fill="url(#paint3_linear_7001_2)"/>
<path d="M131.241 35.379V32.3249C131.241 32.3249 133.639 29.3471 132.882 27.9422C132.124 26.5373 129.918 28.6446 129.918 28.6446C130.33 28.0068 130.669 27.3237 130.928 26.6085C130.988 26.0995 130.736 21.1772 129.135 19.0139C129.135 19.0139 117.522 15.8325 114.957 22.4091C114.957 22.4091 111.634 21.559 108.771 17.5734C104.09 11.0528 109.68 10.2536 115.219 11.5109C121.94 13.038 128.676 8.02917 136.376 13.1194C144.076 18.2096 137.174 29.7797 131.241 35.379Z" fill="#262F72"/>
<g filter="url(#filter0_d_7001_2)">
<path d="M78.3838 6.96021H12.8681C11.2841 6.96021 10 8.25466 10 9.85146V70.751C10 72.3478 11.2841 73.6423 12.8681 73.6423H78.3838C79.9678 73.6423 81.2519 72.3478 81.2519 70.751V9.85146C81.2519 8.25466 79.9678 6.96021 78.3838 6.96021Z" fill="white"/>
</g>
<path d="M20.9117 19.0444C20.7299 19.2519 20.4962 19.4065 20.2351 19.4924C19.9235 19.6014 19.5954 19.6548 19.2656 19.6502C18.9234 19.658 18.5852 19.5737 18.2861 19.4058C18.0027 19.2399 17.7756 18.9915 17.6347 18.6932C17.4742 18.3495 17.3931 17.9736 17.3974 17.5937V17.2985C17.3882 16.9121 17.4623 16.5283 17.6145 16.1735C17.7453 15.8726 17.9637 15.6188 18.2406 15.4456C18.5757 15.2627 18.9545 15.1768 19.335 15.1975C19.7156 15.2181 20.083 15.3445 20.3967 15.5627C20.6979 15.8403 20.8792 16.2259 20.9016 16.6367H20.0382C20.0186 16.4292 19.9254 16.2358 19.7756 16.0921C19.6169 15.9694 19.4199 15.9081 19.2202 15.919C19.0856 15.9114 18.9513 15.9388 18.8302 15.9985C18.7091 16.0582 18.6051 16.1483 18.5284 16.2601C18.3512 16.5683 18.2687 16.9226 18.2911 17.2781V17.553C18.2692 17.9111 18.3593 18.2672 18.5486 18.571C18.636 18.6871 18.7503 18.7799 18.8814 18.8411C19.0126 18.9024 19.1567 18.9302 19.301 18.9223C19.5566 18.9448 19.8112 18.8683 20.0129 18.7085V17.9602H19.2051V17.3036H20.9016L20.9117 19.0444Z" fill="#64B5F6"/>
<path d="M72.8295 15.1912H26.4054C25.8393 15.1912 25.3804 15.6538 25.3804 16.2245V19.9811C25.3804 20.5518 25.8393 21.0144 26.4054 21.0144H72.8295C73.3956 21.0144 73.8545 20.5518 73.8545 19.9811V16.2245C73.8545 15.6538 73.3956 15.1912 72.8295 15.1912Z" fill="#E7EEF2"/>
<path d="M73.8545 24.3026H25.3804V25.3207H73.8545V24.3026Z" fill="#BBDEFB"/>
<path d="M73.8545 26.5933H25.3804V27.6113H73.8545V26.5933Z" fill="#E7E8E9"/>
<path d="M73.8545 28.8838H25.3804V29.9018H73.8545V28.8838Z" fill="#E7E8E9"/>
<path d="M73.8545 31.1744H25.3804V32.1925H73.8545V31.1744Z" fill="#E7E8E9"/>
<path d="M73.8545 35.4604H25.3804V36.4785H73.8545V35.4604Z" fill="#BBDEFB"/>
<path d="M73.8545 37.751H25.3804V38.769H73.8545V37.751Z" fill="#E7E8E9"/>
<path d="M73.8545 40.0416H25.3804V41.0597H73.8545V40.0416Z" fill="#E7E8E9"/>
<path d="M73.8545 42.3323H25.3804V43.3503H73.8545V42.3323Z" fill="#E7E8E9"/>
<path d="M73.8545 46.491H25.3804V47.509H73.8545V46.491Z" fill="#BBDEFB"/>
<path d="M73.8545 48.7816H25.3804V49.7997H73.8545V48.7816Z" fill="#E7E8E9"/>
<path d="M73.8545 51.0721H25.3804V52.0902H73.8545V51.0721Z" fill="#E7E8E9"/>
<path d="M73.8545 53.3628H25.3804V54.3809H73.8545V53.3628Z" fill="#E7E8E9"/>
<path d="M73.8545 57.5215H25.3804V58.5395H73.8545V57.5215Z" fill="#BBDEFB"/>
<path d="M73.8545 59.8121H25.3804V60.8302H73.8545V59.8121Z" fill="#E7E8E9"/>
<path d="M73.8545 62.1027H25.3804V63.1207H73.8545V62.1027Z" fill="#E7E8E9"/>
<path d="M73.8545 64.3933H25.3804V65.4114H73.8545V64.3933Z" fill="#E7E8E9"/>
<path d="M148.707 73.4591C152.16 83.8228 154.72 95.8205 156.468 105.701C155.841 106.032 155.205 106.347 154.564 106.653C154.276 106.795 153.993 106.927 153.7 107.06C151.873 107.905 149.998 108.663 148.075 109.335C146.561 109.87 145.005 110.353 143.435 110.771C128.603 114.752 112.856 113.371 98.9298 106.866C98.3592 106.597 97.7886 106.322 97.2281 106.037C98.238 100.809 99.4397 94.665 100.849 87.7474C101.36 85.2396 101.897 82.63 102.459 79.9186C105.353 66.0273 109.503 58.4633 112.932 54.3656L112.967 54.3249C113.618 53.5459 114.324 52.8144 115.078 52.1361C115.099 52.1114 115.122 52.0893 115.148 52.0699C115.32 51.9172 115.492 51.7747 115.653 51.6372C117.719 49.9422 119.122 49.6317 119.122 49.6317L119.248 49.6775H119.319C120.416 50.1135 121.566 50.3994 122.738 50.5276H122.935H122.965C123.713 50.5998 124.466 50.6117 125.217 50.5632H125.262C127.346 50.4293 129.376 49.8387 131.21 48.8325C133.361 49.5497 135.387 50.6026 137.214 51.9528C142.435 55.8163 152.953 69.9825 152.953 69.9825L148.707 73.4591Z" fill="url(#paint4_linear_7001_2)"/>
<path d="M167.94 92.8019C167.909 94.217 166.632 97.0879 164.764 100.57C162.128 102.487 159.353 104.202 156.462 105.701C155.836 106.031 155.2 106.347 154.559 106.652C154.271 106.795 153.988 106.927 153.695 107.06C151.867 107.905 149.993 108.663 148.07 109.335L152.948 93.6621L140.325 80.3003L148.702 73.459L152.948 69.9926C152.948 69.9926 168.071 87.3299 167.94 92.8019Z" fill="url(#paint5_linear_7001_2)"/>
<defs>
<filter id="filter0_d_7001_2" x="0" y="0.960205" width="91.2519" height="86.6821" filterUnits="userSpaceOnUse" color-interpolation-filters="sRGB">
<feFlood flood-opacity="0" result="BackgroundImageFix"/>
<feColorMatrix in="SourceAlpha" type="matrix" values="0 0 0 0 0 0 0 0 0 0 0 0 0 0 0 0 0 0 127 0" result="hardAlpha"/>
<feOffset dy="4"/>
<feGaussianBlur stdDeviation="5"/>
<feColorMatrix type="matrix" values="0 0 0 0 0 0 0 0 0 0 0 0 0 0 0 0 0 0 0.15 0"/>
<feBlend mode="normal" in2="BackgroundImageFix" result="effect1_dropShadow_7001_2"/>
<feBlend mode="normal" in="SourceGraphic" in2="effect1_dropShadow_7001_2" result="shape"/>
</filter>
<linearGradient id="paint0_linear_7001_2" x1="106.231" y1="49.2091" x2="102.383" y2="84.4524" gradientUnits="userSpaceOnUse">
<stop stop-color="#42A5F5"/>
<stop offset="1" stop-color="#1565C0"/>
</linearGradient>
<linearGradient id="paint1_linear_7001_2" x1="62.5338" y1="86.322" x2="104.455" y2="91.8333" gradientUnits="userSpaceOnUse">
<stop stop-color="#FFE082"/>
<stop offset="1" stop-color="#FFA726"/>
</linearGradient>
<linearGradient id="paint2_linear_7001_2" x1="9417.78" y1="2525.52" x2="9420.77" y2="2296.66" gradientUnits="userSpaceOnUse">
<stop stop-color="#FFE082"/>
<stop offset="1" stop-color="#FFA726"/>
</linearGradient>
<linearGradient id="paint3_linear_7001_2" x1="14987.3" y1="4056.82" x2="15780.5" y2="4056.82" gradientUnits="userSpaceOnUse">
<stop stop-color="#FFE082"/>
<stop offset="1" stop-color="#FFA726"/>
</linearGradient>
<linearGradient id="paint4_linear_7001_2" x1="42948.6" y1="15084.6" x2="48847.7" y2="20754.6" gradientUnits="userSpaceOnUse">
<stop stop-color="#42A5F5"/>
<stop offset="1" stop-color="#1565C0"/>
</linearGradient>
<linearGradient id="paint5_linear_7001_2" x1="23009.9" y1="12246.9" x2="22606.5" y2="9728.27" gradientUnits="userSpaceOnUse">
<stop stop-color="#FFE082"/>
<stop offset="1" stop-color="#FFA726"/>
</linearGradient>
</defs>
</svg>
