<svg width="157" height="116" viewBox="0 0 157 116" fill="none" xmlns="http://www.w3.org/2000/svg">
<path d="M91.9452 48.1712C91.9452 48.1712 77.1676 41.2252 75.8835 31.6674C74.5994 22.1096 75.5013 12.9762 82.8646 10.4201C82.8646 10.4201 87.5221 -4.30053 104.032 1.61498C120.542 7.53049 117.938 25.2922 126.963 27.4189C135.987 29.5457 152.839 20.5891 156.054 31.5158C159.27 42.4426 148.696 41.7758 141.669 51.0507C134.642 60.3255 145.496 65.1954 143.509 71.5807C141.521 77.966 134.015 82.3559 134.015 82.3559L91.9452 48.1712Z" fill="url(#paint0_linear_7001_6)"/>
<path d="M71.7101 69.1357L75.8835 80.3857H76.337L82.8646 51.0507C78.7422 54.6323 71.7101 69.1357 71.7101 69.1357Z" fill="url(#paint1_linear_7001_6)"/>
<path d="M64.3825 84.6544L61.7378 85.9728C58.4562 87.9228 53.5541 87.3671 53.5541 87.3671C56.2039 90.3223 71.1241 93.6665 75.3179 93.5807L76.0924 83.1136H66.7979L64.3825 84.6544Z" fill="url(#paint2_linear_7001_6)"/>
<path d="M133.679 109.468L133.577 109.519L133.226 109.685C132.935 109.827 132.65 109.958 132.354 110.09C130.509 110.928 128.617 111.681 126.678 112.348C125.577 112.728 124.464 113.08 123.34 113.403L121.995 113.772C107.027 117.724 91.1354 116.353 77.081 109.898C76.5052 109.63 75.9294 109.357 75.3638 109.074L74.3446 108.569C74.4873 104.235 74.7064 99.0466 75.0275 93.5756C75.2313 90.1556 75.481 86.6245 75.7765 83.1186C75.853 82.2043 75.9345 81.295 76.016 80.3857C77.2186 67.4635 79.1448 55.4809 82.2328 51.672L82.2787 51.6215C82.6707 51.0865 83.2238 50.6886 83.8583 50.4848C88.3171 49.4341 91.4611 49.0805 91.9554 48.1712C92.4497 47.2619 91.9554 45.4736 91.9554 45.4736L92.8421 45.3523C94.1313 45.1604 96.6333 44.7562 99.0028 44.15C99.0177 44.1547 99.0337 44.1547 99.0486 44.15C101.143 43.6095 103.125 42.9124 104.093 42.0738L106.081 47.3124C106.081 47.3124 121.026 45.4382 126.861 51.0708C126.897 51.0971 126.929 51.1276 126.958 51.1618C127.019 51.2169 127.077 51.2759 127.131 51.3386C127.478 51.7025 127.787 52.1002 128.053 52.5257C129.954 55.5567 131.299 67.7211 132.232 80.9161C132.446 83.9471 132.64 87.0792 132.808 90.1455C133.195 97.228 133.485 104.088 133.679 109.468Z" fill="url(#paint3_linear_7001_6)"/>
<path opacity="0.15" d="M133.577 109.534L133.225 109.701C132.935 109.842 132.65 109.973 132.354 110.105C130.509 110.943 128.617 111.696 126.678 112.363C125.577 112.743 124.464 113.095 123.34 113.419C116.456 106.149 113.724 96.7127 113.724 96.7127L132.797 90.1455L133.577 109.534Z" fill="black"/>
<path d="M126.856 51.0507C133.761 57.7694 135.264 71.8737 133.99 82.371C132.716 92.8684 130.351 102.699 125.439 102.396C120.527 102.093 103.528 90.4032 96.9593 84.028L100.796 76.7283L114.677 82.462V67.1807L126.856 51.0507Z" fill="url(#paint4_linear_7001_6)"/>
<path d="M126.856 51.0507C133.761 57.7694 135.264 71.8737 133.99 82.371C132.716 92.8684 130.351 102.699 125.439 102.396C120.527 102.093 103.528 90.4032 96.9593 84.028L100.796 76.7283L114.677 82.462V67.1807L126.856 51.0507Z" fill="url(#paint5_linear_7001_6)"/>
<g filter="url(#filter0_d_7001_6)">
<path d="M91.1451 80.3857H27.4539V83.1186H91.1451V80.3857Z" fill="url(#paint6_linear_7001_6)"/>
<path d="M63.4347 46.8426H15L27.4539 80.3857H75.8835L63.4347 46.8426Z" fill="url(#paint7_linear_7001_6)"/>
</g>
<path d="M41.9971 83.1187C41.9971 83.1187 50.354 87.2661 55.6638 87.3671C60.9735 87.4681 66.803 83.1187 66.803 83.1187H41.9971Z" fill="url(#paint8_linear_7001_6)"/>
<path d="M100.796 76.7283C100.796 76.7283 93.4484 73.0507 90.284 72.6465C87.1196 72.2424 77.295 80.3857 77.295 80.3857H91.1554L96.9747 84.0279L100.796 76.7283Z" fill="url(#paint9_linear_7001_6)"/>
<path d="M103.472 33.789C103.508 36.5552 103.712 39.3167 104.083 42.0586C100.796 43.8924 96.9492 44.8775 92.8319 45.3574L92.5924 42.0586L92.4497 40.038V39.9723C91.656 39.9546 90.8736 39.783 90.1465 39.4671C85.173 37.3404 84.1029 26.944 84.1029 26.944C86.0954 26.8632 88.6891 23.3018 88.6891 23.3018C90.1413 25.5043 96.8779 29.7578 100.786 28.6161C104.695 27.4744 104.389 24.7415 104.389 24.7415C105.096 25.037 105.707 25.5193 106.157 26.1357C106.606 26.7522 106.876 27.4791 106.937 28.2372C107.146 30.9045 103.472 33.789 103.472 33.789Z" fill="url(#paint10_linear_7001_6)"/>
<path opacity="0.15" d="M100.134 36.7241C99.2117 38.2699 95.0383 40.73 92.5975 42.0687L92.4548 40.0481C92.6076 40.0481 92.7554 39.9975 92.8981 39.9672C94.8908 39.6176 96.8035 38.9142 98.5441 37.891C98.5649 37.8829 98.584 37.8709 98.6002 37.8556C99.1233 37.5491 99.6133 37.1902 100.063 36.7847L100.134 36.7241Z" fill="black"/>
<path opacity="0.15" d="M108.95 80.1028L119.763 84.4877L114.667 80.8454V67.2059C114.667 67.2059 113.072 79.0571 108.95 80.1028Z" fill="black"/>
<defs>
<filter id="filter0_d_7001_6" x="0" y="31.8426" width="116.145" height="76.2761" filterUnits="userSpaceOnUse" color-interpolation-filters="sRGB">
<feFlood flood-opacity="0" result="BackgroundImageFix"/>
<feColorMatrix in="SourceAlpha" type="matrix" values="0 0 0 0 0 0 0 0 0 0 0 0 0 0 0 0 0 0 127 0" result="hardAlpha"/>
<feOffset dx="5" dy="5"/>
<feGaussianBlur stdDeviation="10"/>
<feColorMatrix type="matrix" values="0 0 0 0 0 0 0 0 0 0 0 0 0 0 0 0 0 0 0.2 0"/>
<feBlend mode="normal" in2="BackgroundImageFix" result="effect1_dropShadow_7001_6"/>
<feBlend mode="normal" in="SourceGraphic" in2="effect1_dropShadow_7001_6" result="shape"/>
</filter>
<linearGradient id="paint0_linear_7001_6" x1="75.3994" y1="41.2807" x2="156.656" y2="41.2807" gradientUnits="userSpaceOnUse">
<stop stop-color="#EF9A9A"/>
<stop offset="1" stop-color="#D81B60"/>
</linearGradient>
<linearGradient id="paint1_linear_7001_6" x1="76.6836" y1="66.8826" x2="74.2744" y2="94.5138" gradientUnits="userSpaceOnUse">
<stop stop-color="#7E57C2"/>
<stop offset="1" stop-color="#4527A0"/>
</linearGradient>
<linearGradient id="paint2_linear_7001_6" x1="6813.02" y1="2511.43" x2="6789.49" y2="3087.43" gradientUnits="userSpaceOnUse">
<stop stop-color="#7E57C2"/>
<stop offset="1" stop-color="#4527A0"/>
</linearGradient>
<linearGradient id="paint3_linear_7001_6" x1="20341.2" y1="14842" x2="24468.7" y2="22476.9" gradientUnits="userSpaceOnUse">
<stop stop-color="#7E57C2"/>
<stop offset="1" stop-color="#4527A0"/>
</linearGradient>
<linearGradient id="paint4_linear_7001_6" x1="13960.4" y1="9754.53" x2="17624.5" y2="15910.1" gradientUnits="userSpaceOnUse">
<stop stop-color="#7E57C2"/>
<stop offset="1" stop-color="#4527A0"/>
</linearGradient>
<linearGradient id="paint5_linear_7001_6" x1="118.759" y1="56.7489" x2="113.038" y2="103.812" gradientUnits="userSpaceOnUse">
<stop offset="0.14" stop-color="#7E57C2" stop-opacity="0"/>
<stop offset="0.26" stop-color="#724DBB" stop-opacity="0.21"/>
<stop offset="0.48" stop-color="#5F3DAF" stop-opacity="0.55"/>
<stop offset="0.66" stop-color="#5131A7" stop-opacity="0.79"/>
<stop offset="0.81" stop-color="#482AA2" stop-opacity="0.94"/>
<stop offset="0.91" stop-color="#4527A0"/>
</linearGradient>
<linearGradient id="paint6_linear_7001_6" x1="27.4539" y1="81.7496" x2="91.1451" y2="81.7496" gradientUnits="userSpaceOnUse">
<stop stop-color="#D2D4D5"/>
<stop offset="1" stop-color="#AAACAE"/>
</linearGradient>
<linearGradient id="paint7_linear_7001_6" x1="537.989" y1="4182.71" x2="4142.02" y2="8316.05" gradientUnits="userSpaceOnUse">
<stop stop-color="#D2D4D5"/>
<stop offset="1" stop-color="#AAACAE"/>
</linearGradient>
<linearGradient id="paint8_linear_7001_6" x1="43.5767" y1="78.557" x2="63.884" y2="87.3382" gradientUnits="userSpaceOnUse">
<stop stop-color="#FFF8E1"/>
<stop offset="1" stop-color="#FFCC80"/>
</linearGradient>
<linearGradient id="paint9_linear_7001_6" x1="7875.06" y1="2925.73" x2="8393.29" y2="3493.97" gradientUnits="userSpaceOnUse">
<stop stop-color="#FFF8E1"/>
<stop offset="1" stop-color="#FFCC80"/>
</linearGradient>
<linearGradient id="paint10_linear_7001_6" x1="8044.47" y1="3211.22" x2="8499.41" y2="4072.69" gradientUnits="userSpaceOnUse">
<stop stop-color="#FFF8E1"/>
<stop offset="1" stop-color="#FFCC80"/>
</linearGradient>
</defs>
</svg>
