<svg width="18" height="25" viewBox="0 0 18 25" fill="none" xmlns="http://www.w3.org/2000/svg">
<path d="M18 9C18 4 14 0 9 0C4 0 0 4 0 9C0 12.1 1.6 14.9 4 16.5V19C4 20.3 4.8 21.4 6 21.8V22C6 23.7 7.3 25 9 25C10.7 25 12 23.7 12 22V21.8C13.2 21.4 14 20.3 14 19V16.5C16.4 14.9 18 12.1 18 9ZM2 9C2 5.1 5.1 2 9 2C12.9 2 16 5.1 16 9C16 12.5 13.4 15.4 10 15.9V13.4L11.7 11.7C12.1 11.3 12.1 10.7 11.7 10.3C11.3 9.9 10.7 9.9 10.3 10.3L9 11.6L7.7 10.3C7.3 9.9 6.7 9.9 6.3 10.3C5.9 10.7 5.9 11.3 6.3 11.7L8 13.4V15.9C4.6 15.4 2 12.5 2 9ZM9 23C8.4 23 8 22.6 8 22H10C10 22.6 9.6 23 9 23ZM12 19C12 19.6 11.6 20 11 20H7C6.4 20 6 19.6 6 19V17.5C6.9 17.8 7.9 18 9 18C10.1 18 11.1 17.8 12 17.5V19Z" fill="white"/>
</svg>
